<svg width="1600" height="1000" viewBox="0 0 1600 1000" fill="none" xmlns="http://www.w3.org/2000/svg">
  <defs>
    <linearGradient id="g1" x1="200" y1="220" x2="1400" y2="820" gradientUnits="userSpaceOnUse">
      <stop stop-color="#22D3EE" stop-opacity="0.95"/>
      <stop offset="0.5" stop-color="#60A5FA" stop-opacity="0.75"/>
      <stop offset="1" stop-color="#34D399" stop-opacity="0.85"/>
    </linearGradient>
    <linearGradient id="g2" x1="300" y1="850" x2="1320" y2="120" gradientUnits="userSpaceOnUse">
      <stop stop-color="#34D399" stop-opacity="0.8"/>
      <stop offset="0.55" stop-color="#22D3EE" stop-opacity="0.55"/>
      <stop offset="1" stop-color="#818CF8" stop-opacity="0.55"/>
    </linearGradient>
    <filter id="softBlur" x="-20%" y="-20%" width="140%" height="140%" filterUnits="objectBoundingBox" color-interpolation-filters="sRGB">
      <feGaussianBlur stdDeviation="18"/>
    </filter>
    <filter id="glow" x="-30%" y="-30%" width="160%" height="160%" filterUnits="objectBoundingBox" color-interpolation-filters="sRGB">
      <feGaussianBlur stdDeviation="10" result="b"/>
      <feColorMatrix in="b" type="matrix" values="1 0 0 0 0  0 1 0 0 0  0 0 1 0 0  0 0 0 0.55 0"/>
      <feMerge>
        <feMergeNode/>
        <feMergeNode in="SourceGraphic"/>
      </feMerge>
    </filter>
  </defs>

  <g opacity="0.95">
    <path d="M140 720C340 520 520 530 740 620C960 710 1120 650 1320 430" stroke="url(#g1)" stroke-width="2.5" stroke-linecap="round" filter="url(#glow)"/>
    <path d="M220 270C420 180 610 210 820 340C1030 470 1200 470 1420 320" stroke="url(#g2)" stroke-width="2.2" stroke-linecap="round" opacity="0.75" filter="url(#glow)"/>
    <path d="M210 860C420 760 620 760 820 840C1020 920 1200 890 1390 770" stroke="url(#g2)" stroke-width="1.8" stroke-linecap="round" opacity="0.45"/>
  </g>

  <g opacity="0.8" filter="url(#softBlur)">
    <circle cx="420" cy="320" r="120" fill="#22D3EE" fill-opacity="0.18"/>
    <circle cx="1180" cy="280" r="160" fill="#818CF8" fill-opacity="0.16"/>
    <circle cx="980" cy="740" r="190" fill="#34D399" fill-opacity="0.14"/>
  </g>

  <g opacity="0.85">
    <g opacity="0.7">
      <circle cx="260" cy="520" r="2" fill="#E2E8F0" fill-opacity="0.5"/>
      <circle cx="330" cy="610" r="2" fill="#E2E8F0" fill-opacity="0.5"/>
      <circle cx="520" cy="560" r="2" fill="#E2E8F0" fill-opacity="0.5"/>
      <circle cx="690" cy="460" r="2" fill="#E2E8F0" fill-opacity="0.5"/>
      <circle cx="860" cy="520" r="2" fill="#E2E8F0" fill-opacity="0.5"/>
      <circle cx="1030" cy="610" r="2" fill="#E2E8F0" fill-opacity="0.5"/>
      <circle cx="1210" cy="560" r="2" fill="#E2E8F0" fill-opacity="0.5"/>
      <circle cx="1350" cy="470" r="2" fill="#E2E8F0" fill-opacity="0.5"/>
    </g>
    <g opacity="0.45">
      <path d="M250 520H1350" stroke="#E2E8F0" stroke-opacity="0.18" stroke-width="1" stroke-linecap="round" stroke-dasharray="2 14"/>
      <path d="M330 610H1030" stroke="#E2E8F0" stroke-opacity="0.16" stroke-width="1" stroke-linecap="round" stroke-dasharray="2 16"/>
      <path d="M520 560H1210" stroke="#E2E8F0" stroke-opacity="0.14" stroke-width="1" stroke-linecap="round" stroke-dasharray="2 18"/>
    </g>
  </g>
</svg>
